<?xml version="1.0" encoding="UTF-8"?>
<svg version="1.1" xmlns="http://www.w3.org/2000/svg" width="48" height="48">
<path d="M0 0 C15.84 0 31.68 0 48 0 C48 15.51 48 31.02 48 47 C32.16 47 16.32 47 0 47 C0 31.49 0 15.98 0 0 Z " fill="#EC363A" transform="translate(0,0)"/>
<path d="M0 0 C15.84 0 31.68 0 48 0 C48 15.51 48 31.02 48 47 C32.16 47 16.32 47 0 47 C0 31.49 0 15.98 0 0 Z M5 7 C4.89912788 9.50924153 4.86027968 11.99036384 4.8671875 14.5 C4.86623077 15.25087891 4.86527405 16.00175781 4.86428833 16.77539062 C4.86360662 18.36588627 4.86546028 19.95638467 4.86962891 21.546875 C4.87497733 23.98964655 4.86968366 26.43223421 4.86328125 28.875 C4.86394203 30.41666707 4.8652232 31.95833403 4.8671875 33.5 C4.86516327 34.23541016 4.86313904 34.97082031 4.86105347 35.72851562 C4.56943487 39.15246342 4.56943487 39.15246342 6 42 C8.58189446 42.10091475 11.136465 42.13971499 13.71875 42.1328125 C14.87836243 42.13424759 14.87836243 42.13424759 16.06140137 42.13571167 C17.69897544 42.13639341 19.33655219 42.13453957 20.97412109 42.13037109 C23.48931921 42.12502271 26.00433873 42.13031626 28.51953125 42.13671875 C30.10677123 42.13605797 31.6940111 42.1347768 33.28125 42.1328125 C34.03853394 42.13483673 34.79581787 42.13686096 35.5760498 42.13894653 C39.08015563 42.44453684 39.08015563 42.44453684 42 41 C42.10087212 38.49075847 42.13972032 36.00963616 42.1328125 33.5 C42.13376923 32.74912109 42.13472595 31.99824219 42.13571167 31.22460938 C42.13639338 29.63411373 42.13453972 28.04361533 42.13037109 26.453125 C42.12502267 24.01035345 42.13031634 21.56776579 42.13671875 19.125 C42.13605797 17.58333293 42.1347768 16.04166597 42.1328125 14.5 C42.13483673 13.76458984 42.13686096 13.02917969 42.13894653 12.27148438 C42.43056513 8.84753658 42.43056513 8.84753658 41 6 C38.41810554 5.89908525 35.863535 5.86028501 33.28125 5.8671875 C32.50817505 5.86623077 31.7351001 5.86527405 30.93859863 5.86428833 C29.30102456 5.86360659 27.66344781 5.86546043 26.02587891 5.86962891 C23.51068079 5.87497729 20.99566127 5.86968374 18.48046875 5.86328125 C16.89322877 5.86394203 15.3059889 5.8652232 13.71875 5.8671875 C12.96146606 5.86516327 12.20418213 5.86313904 11.4239502 5.86105347 C7.91984437 5.55546316 7.91984437 5.55546316 5 7 Z " fill="#FEFCFC" transform="translate(0,0)"/>
<path d="M0 0 C1.12591553 0.00523682 2.25183105 0.01047363 3.41186523 0.01586914 C4.62680664 0.0190918 5.84174805 0.02231445 7.09350586 0.02563477 C8.37290039 0.03401367 9.65229492 0.04239258 10.97045898 0.05102539 C12.2537207 0.05553711 13.53698242 0.06004883 14.85913086 0.06469727 C18.04211921 0.07652994 21.22501661 0.09301471 24.40795898 0.11352539 C23.41795898 2.42352539 22.42795898 4.73352539 21.40795898 7.11352539 C20.72169434 7.13858154 20.03542969 7.1636377 19.32836914 7.18945312 C16.22970081 7.30523966 13.13134975 7.42804424 10.03295898 7.55102539 C8.95272461 7.5903418 7.87249023 7.6296582 6.75952148 7.67016602 C5.72827148 7.71206055 4.69702148 7.75395508 3.63452148 7.79711914 C2.6814209 7.83377686 1.72832031 7.87043457 0.74633789 7.90820312 C-1.61336451 7.97116005 -1.61336451 7.97116005 -3.59204102 9.11352539 C-3.68969727 2.96118164 -3.68969727 2.96118164 -3.59204102 1.11352539 C-2.59204102 0.11352539 -2.59204102 0.11352539 0 0 Z " fill="#FDF4F4" transform="translate(12.592041015625,10.886474609375)"/>
<path d="M0 0 C6.6 0 13.2 0 20 0 C18 5 18 5 17 7 C11.39 7 5.78 7 0 7 C0 4.69 0 2.38 0 0 Z " fill="#FDF1F1" transform="translate(13,20)"/>
<path d="M0 0 C7.26 0 14.52 0 22 0 C21.01 1.98 20.02 3.96 19 6 C12.73 6 6.46 6 0 6 C0 4.02 0 2.04 0 0 Z " fill="#FEFEFE" transform="translate(14,30)"/>
</svg>
